<svg xmlns="http://www.w3.org/2000/svg" viewBox="0 0 20.63 19.72"><path fill-rule="evenodd" d="M20.58 4.43l-1.2 8.9a2.02 2.02 0 0 1-1.9 1.65H6.62a2.02 2.02 0 0 1-1.87-1.64L3.26 3.04A3.74 3.74 0 0 1 3.13 2H1a1 1 0 0 1 0-2h4a1 1 0 0 1 .1 1.98h13.97c1.1 0 1.77 1.13 1.5 2.45zM6.73 12.95l-1.3-9h13.2l-.04.2-1.2 8.8H6.73zm.52 3a1.87 1.87 0 1 1-1.88 1.88 1.87 1.87 0 0 1 1.88-1.87zm9 0a1.87 1.87 0 1 1-1.88 1.88 1.87 1.87 0 0 1 1.88-1.87z"/><path fill="currentColor" d="M5.4,3.9h13.2l-1.2,9H6.7L5.4,3.9z"/></svg>
