<svg xmlns="http://www.w3.org/2000/svg" viewBox="0 0 47.41 47.38"><path fill-rule="evenodd" d="M39.1 23.2A2.42 2.42 0 0 1 37 24.22a9.37 9.37 0 0 1-3.25-.84 17.1 17.1 0 0 1-1.58 8.34 5.2 5.2 0 0 1 .52 3.08c-.5 3.38-4.3 5.23-8.53 5.23s-8.02-1.85-8.48-5.23A5.16 5.16 0 0 1 16 32.2a17.33 17.33 0 0 1-1.8-8.73 8.93 8.93 0 0 1-3.06.76A2.42 2.42 0 0 1 9 23.2a2.33 2.33 0 0 1-.15-2.23c.8-1.9 3.6-2.74 4.75-3l.1-.03c-1.4-2.9-.72-7.6-.2-9.2l3.06.26c.06 1 .77 2.88 3.44 5l1.58 1.1a12.9 12.9 0 0 1 2.4-.23 12.73 12.73 0 0 1 2.3.2l1.68-1.15c2.67-2.13 3.38-4 3.44-5l3.05-.27c.53 1.6 1.2 6.35-.22 9.24l.3.06c1.15.27 3.93 1.1 4.74 3a2.33 2.33 0 0 1-.16 2.23zm-25.06-3.3s-2.86.67-3.36 1.86 3.15-.14 3.83-.7a2.32 2.32 0 0 1-.46-1.15zm3.3.08c-1.75 2.75-1.58 7 .47 11.37l.37.78-.3.8a3.2 3.2 0 0 0-.22 1.62c.33 2.4 3.6 3.5 6.5 3.5s6.2-1.1 6.54-3.52a3.18 3.18 0 0 0-.34-1.9l-.4-.84.36-.87c1.88-4.25 1.97-8.37.25-11.02-1.3-1.98-3.58-3.03-6.6-3.03-3.04 0-5.34 1.07-6.63 3.1zm20.1 1.78c-.5-1.2-3.37-1.85-3.37-1.85a2.33 2.33 0 0 1-.47 1.16c.68.56 4.33 1.88 3.83.7zm-18.58-6.1s-3.6-2.48-3.73-5.02c-.4 2.18-.6 5.62.7 7a21 21 0 0 1 3.03-1.98zm10.23-.1s3.6-2.47 3.73-5c.4 2.16.58 5.6-.7 6.97a22.9 22.9 0 0 0-3.04-1.97zM23.7 0A23.7 23.7 0 1 1 .02 23.7 23.7 23.7 0 0 1 23.72 0zm0 45.4a21.7 21.7 0 1 1 21.7-21.7 21.72 21.72 0 0 1-21.7 21.7z"/></svg>