<svg xmlns="http://www.w3.org/2000/svg" viewBox="0 0 47.38 47.38"><path fill-rule="evenodd" d="M29.64 9.64A8.57 8.57 0 0 0 15 15.7v14.68a.8.8 0 0 0 .8.8h15.54a.8.8 0 0 0 .8-.8V15.7a8.5 8.5 0 0 0-2.5-6.06zm.9 19.93H16.6v-10.9c.04.06.1.1.14.17a2.62 2.62 0 0 0 4.3 0 1.2 1.2 0 0 1 .96-.6 1 1 0 0 1 .3.43 10.75 10.75 0 0 1 .5 1.22 9.6 9.6 0 0 0 .7 1.64 1.75 1.75 0 0 0 3.23 0 9.6 9.6 0 0 0 .7-1.65 10.67 10.67 0 0 1 .5-1.23 1 1 0 0 1 .3-.43 1.2 1.2 0 0 1 .95.6 3.2 3.2 0 0 0 1.34 1v9.73zm-9 8.58a2.05 2.05 0 1 0 4.1 0V32h-4.1v6.15zM23.68 0A23.7 23.7 0 1 1 0 23.7 23.7 23.7 0 0 1 23.7 0zm0 45.4a21.7 21.7 0 1 1 21.7-21.7 21.72 21.72 0 0 1-21.7 21.7z"/></svg>