<svg xmlns="http://www.w3.org/2000/svg" viewBox="0 0 47.38 47.38"><path fill="#323232" fill-rule="evenodd" d="M23.62 39.8s-22.24-10.17 0-32.74c22.24 22.57 0 32.75 0 32.75zm7.52-17.17L24.6 26.8l-.02 3.67 6.9-4.4a13.37 13.37 0 0 0-.34-3.44zm-15.4 3.2l6.84 4.47v-3.62l-6.45-4.15a13.62 13.62 0 0 0-.38 3.3zm6.84-1.53v-3.63l-4.4-3.38a21.76 21.76 0 0 0-1.46 3.23zm0-6.1v-7.03a39.18 39.18 0 0 0-3.35 4.42zm2 .3l3.63-2.6a39.5 39.5 0 0 0-3.62-4.83v7.42zm.02 2.3l-.02 3.67 5.98-3.85a21.7 21.7 0 0 0-1.33-3zm6.45 7.9l-6.45 4.1-.02 4.15a15.3 15.3 0 0 0 6.47-8.26zm-8.47 8.2v-4.22l-6.4-4.13c1.1 4.14 4.3 6.93 6.4 8.34zM23.68 0A23.7 23.7 0 1 1-.02 23.7 23.7 23.7 0 0 1 23.68 0zm0 45.4a21.7 21.7 0 1 1 21.7-21.7 21.72 21.72 0 0 1-21.7 21.7z"/></svg>
