<svg xmlns="http://www.w3.org/2000/svg" viewBox="0 0 78.94 138.75"><path fill="#e84d37" fill-rule="evenodd" d="M56.56 74.37l-1.05 1.06-2.84-2.85A19.4 19.4 0 0 1 51 71.43a18.84 18.84 0 0 1-5.04 5.12 18.46 18.46 0 0 1-4.53 2.27l-1.95 1.95-1.18-1.18a19.42 19.42 0 0 1-2.86.2l-1.08-.02 3.06 3.05-3.28 3.28-3.28-3.27 3.08-3.08a18.7 18.7 0 0 1-3.5-.63l-1.64 1.65-3.28-3.28.35-.36a18.7 18.7 0 0 1-2.4-1.72l-.05-.04a18.62 18.62 0 0 1-1.94-1.9 15.9 15.9 0 0 1-5.6 1.7l21.4 60.97c.6 1.73 1.4 2.6 2.2 2.6s1.6-.87 2.22-2.6l21.37-60.88-.72.02a18.4 18.4 0 0 1-5.8-.93zm-6.4-.16l3.28 3.3-3.28 3.27-3.27-3.28zm-5.34 5.35l3.28 3.28-3.28 3.28-3.28-3.27zm-8.62 19.3l3.28-3.27 3.28 3.28-3.28 3.28zm6.56 10.7l-3.28 3.27-3.28-3.28 3.28-3.27zM41.54 93.5l3.28-3.28 3.28 3.28-3.28 3.27zm-2.06-8.62l3.28 3.27-3.28 3.28-3.28-3.28zm-2.06 8.62l-3.28 3.27-3.28-3.28 3.28-3.28zm-14.3-13.64l.33-.33 3.28 3.28-1.9 1.9zm2.78 7.9l2.9-2.88 3.27 3.27-3.27 3.28-2.48-2.47zm2.78 7.92l.12-.12 3.27 3.28-1.7 1.7zm3.42 9.74l-.64-1.83 2.68-2.68 3.28 3.28-3.28 3.28zm2.23 6.36l3.1 3.1-1.5 1.47zm5.15 14.67L37 119.42l2.48-2.47 2.47 2.47zm3.55-10.1l-1.5-1.48 3.1-3.1zm3.83-10.93l-2.04 2.04-3.27-3.28 3.27-3.28 2.7 2.7zm1.72-4.9l-1.7-1.68 3.3-3.28.1.12zM52.64 89l-2.47 2.47-3.28-3.28 3.27-3.27 2.9 2.9zm1.5-4.25l-1.9-1.9 3.27-3.28.33.33zm19.4-40.28a35.24 35.24 0 1 0-67.1 2.97 14.06 14.06 0 1 0 15.5 23.46 16.66 16.66 0 0 0 13.5 6.92 16.6 16.6 0 0 0 14.7-8.94l.68-.2a16.6 16.6 0 1 0 22.73-24.2zM62.35 67A10.24 10.24 0 0 1 54.2 63a3.14 3.14 0 0 0-3.68-.97 27.73 27.73 0 0 1-3.44 1.16 3.16 3.16 0 0 0-2.1 1.87 10.3 10.3 0 0 1-19.25-.35 3.14 3.14 0 0 0-2.48-2.03 2.48 2.48 0 0 0-.47-.05 3.15 3.15 0 0 0-2.5 1.25 7.77 7.77 0 1 1-8.78-12 3.15 3.15 0 0 0 1.8-4.32 28.95 28.95 0 1 1 53.64-3 3.14 3.14 0 0 0 1.2 3.6 10.3 10.3 0 0 1-5.8 18.8z"/></svg>