<svg xmlns="http://www.w3.org/2000/svg" viewBox="0 0 31.38 31.41"><path fill="#fff" d="M15.68 0A15.7 15.7 0 1 1-.02 15.7 15.7 15.7 0 0 1 15.7 0zm5.96 18.26a3.1 3.1 0 0 0-.75-2.2 3.7 3.7 0 0 0-2.03-1.1v-.06a2.88 2.88 0 0 0 1.37-1.14 3.2 3.2 0 0 0 .5-1.77 3.13 3.13 0 0 0-.36-1.53 2.6 2.6 0 0 0-1.1-1.05 4.52 4.52 0 0 0-1.44-.48 18 18 0 0 0-2.27-.1h-4.8V22.4h5.44a8.9 8.9 0 0 0 2.34-.25 4.78 4.78 0 0 0 1.7-.86 3.68 3.68 0 0 0 1.02-1.26 3.9 3.9 0 0 0 .4-1.78zm-4.37-5.6a1.52 1.52 0 0 0-.17-.66 1 1 0 0 0-.52-.5 2.1 2.1 0 0 0-.8-.17H14.17v2.87h.43c.58 0 1 0 1.22-.02a2.04 2.04 0 0 0 .73-.2 1.13 1.13 0 0 0 .56-.52 1.9 1.9 0 0 0 .17-.8zm.86 5.54a1.67 1.67 0 0 0-.26-1 1.53 1.53 0 0 0-.76-.53 2.66 2.66 0 0 0-.85-.13h-2.08v3.4h.18c.9 0 1.5-.02 1.84-.03a2.87 2.87 0 0 0 1.03-.23 1.38 1.38 0 0 0 .68-.6 1.8 1.8 0 0 0 .23-.87z"/></svg>
