<svg xmlns="http://www.w3.org/2000/svg" viewBox="0 0 31.38 31.41"><path fill="#fff" d="M15.68 0A15.7 15.7 0 1 1-.02 15.7 15.7 15.7 0 0 1 15.68 0zm6.27 23.62a1.75 1.75 0 0 0 1.74-1.75V9.57a1.74 1.74 0 0 0-1.75-1.75H9.62a1.74 1.74 0 0 0-1.74 1.74v12.3a1.75 1.75 0 0 0 1.74 1.76h12.33zm-1.38-9.1a4.92 4.92 0 1 1-9.53 0H9.66v6.78a.6.6 0 0 0 .6.6h11.08a.6.6 0 0 0 .6-.6v-6.78h-1.37zm-4.76-1.6a2.85 2.85 0 1 1 0 5.67 2.84 2.84 0 0 1 0-5.7zm3.7-3.32h1.88a.6.6 0 0 1 .6.6v1.87a.6.6 0 0 1-.6.6H19.5a.6.6 0 0 1-.6-.6V10.2a.6.6 0 0 1 .6-.6z"/></svg>
