<svg xmlns="http://www.w3.org/2000/svg" viewBox="0 0 31.38 31.4"><path fill="#fff" d="M15.68 0A15.7 15.7 0 1 1-.02 15.7 15.7 15.7 0 0 1 15.68 0zm9.13 10.82a7.33 7.33 0 0 1-2.08.57 3.66 3.66 0 0 0 1.6-2.03 7.4 7.4 0 0 1-2.3.9 3.65 3.65 0 0 0-6.22 3.3 10.32 10.32 0 0 1-7.5-3.8 3.65 3.65 0 0 0 1.12 4.87 3.68 3.68 0 0 1-1.65-.46v.05a3.65 3.65 0 0 0 2.93 3.57 3.8 3.8 0 0 1-.96.13 3.86 3.86 0 0 1-.7-.07 3.64 3.64 0 0 0 3.4 2.53 7.3 7.3 0 0 1-4.5 1.55 8.3 8.3 0 0 1-.88-.05A10.35 10.35 0 0 0 23 13.17v-.47a7.33 7.33 0 0 0 1.82-1.88z"/></svg>
