<svg xmlns="http://www.w3.org/2000/svg" viewBox="0 0 47.41 47.38"><path fill="#323232" fill-rule="evenodd" d="M23.55 38.52a6.8 6.8 0 0 1-6.82-6.77 8.04 8.04 0 0 1 1.82-4.6V12.3a5 5 0 0 1 10 0v14.92a7.63 7.63 0 0 1 1.78 4.53 6.78 6.78 0 0 1-6.78 6.77zm0-2a4.8 4.8 0 0 1-4.8-4.77 5.24 5.24 0 0 1 1.85-3.78V12.3a3 3 0 0 1 6 0v15.73a5.1 5.1 0 0 1 1.75 3.72 4.8 4.8 0 0 1-4.8 4.77zm2.7-4.9A2.77 2.77 0 1 1 22.6 29V12.16a.95.95 0 0 1 1.9 0v16.87a2.77 2.77 0 0 1 1.78 2.58zm5.28-16.43h4a1 1 0 0 1 0 2h-4a1 1 0 0 1 0-2zm0-4h4a1 1 0 0 1 0 2h-4a1 1 0 0 1 0-2zm0 8h4a1 1 0 0 1 0 2h-4a1 1 0 0 1 0-2zm0 4h4a1 1 0 0 1 0 2h-4a1 1 0 0 1 0-2zM23.7 0A23.7 23.7 0 1 1 0 23.7 23.7 23.7 0 0 1 23.7 0zm0 45.4a21.7 21.7 0 1 1 21.7-21.7 21.72 21.72 0 0 1-21.7 21.7z"/></svg>
