<svg xmlns="http://www.w3.org/2000/svg" width="153.09" height="63.25" viewBox="0 0 153.09 63.25">
  <defs>
    <style>
      .cls-1 { fill: #fff; fill-rule: evenodd; }
    </style>
  </defs>
  <path id="Logo" d="M150.5 44.64c-1.74-1.86-4.23-2.08-7-2.08h-.23a13.54 13.54 0 0 0-8.98-4.4c-3.5-.23-6.37-.23-8.85.83.1-.68.16-1.56.2-2.23a4.27 4.27 0 0 0 1.65.2c3.07 0 6.3-2.58 6.57-8.24.13-3.13-.38-5.4-1.5-6.56a2.66 2.66 0 0 0-1.93-.87c-1.65 0-3.2 1.44-4.4 4.06v-.77c-.02-.5-.02-.9-.02-1.33 0-1.1-.06-1.73-1.14-1.73a1.53 1.53 0 0 0-1.08.48 2.56 2.56 0 0 0-.6 1.94c.02 1.38.02 2.8 0 4.28-.5 2.25-1.4 4-2.33 4.7a17.47 17.47 0 0 0 1.1-4.25c.43-3.03-.03-5.65-1.2-7a2.1 2.1 0 0 0-2-.83 3.6 3.6 0 0 0-2.1 1.26.94.94 0 0 0-1.26-.34c-2.57 1-4.2 4-4.38 8.03a8.05 8.05 0 0 0 1.88 5.98 4.3 4.3 0 0 0 3.16 1.4 4.6 4.6 0 0 0 3.65-2.15 4.58 4.58 0 0 0 3.37-2c-.12 2.5-.3 4.93-.57 7.3a17.98 17.98 0 0 0-5.2 6.53c-1.97 3.94-1.76 7.55-.7 9.24a2.03 2.03 0 0 0 1.66 1.12c3.1 0 5.57-8.58 6.78-16.02a14.88 14.88 0 0 1 8.43-1.97 11.58 11.58 0 0 1 6.8 2.18 8.43 8.43 0 0 0-5.87 7.1 5.58 5.58 0 0 0 1.12 4.43 4.2 4.2 0 0 0 3.5 1.4 6.06 6.06 0 0 0 4.36-2.02 8.6 8.6 0 0 0 1.85-6.37 9.2 9.2 0 0 0-.6-2.76c3.9.65 6.26 4 6.05 8.76a10 10 0 0 1-9.9 9.4c-3 0-5.2-.72-6.35-2.1a4.53 4.53 0 0 1-.87-3.78l.08-.38a1.04 1.04 0 0 0-.05-.95.64.64 0 0 0-.54-.24 1.72 1.72 0 0 0-.4.07 3.44 3.44 0 0 0-2.47 3.2c0 2.93 3.12 6.1 10 6.1 7.13 0 12.43-4.34 12.88-11.1a9.52 9.52 0 0 0-2.58-7.53zM115.54 24.1a12.44 12.44 0 0 0-.58 5.4 6.58 6.58 0 0 0 2.6 4.93 1.5 1.5 0 0 1-2.05-.33 6.6 6.6 0 0 1-1.28-4.75 10.55 10.55 0 0 1 1.32-5.25zm4.4 4.74a9.74 9.74 0 0 1-1.02 4.13c-1.17-.72-1.67-2.5-1.73-3.92-.13-2.52.93-4.7 1.78-4.93a.34.34 0 0 1 .2.12c.47.5.9 2.15.75 4.6zm7.3 6.1a2.2 2.2 0 0 1-1.38-.4l.06-1.02c1.06-6.8 3.1-9.67 3.75-9.67a.32.32 0 0 1 .25.13c.45.5.86 2.16.65 5.4-.25 3.5-1.5 5.56-3.32 5.56zm-8.33 19.1a.42.42 0 0 1-.27-.25c-.48-.8-.56-3.25 1.22-6.8a15.36 15.36 0 0 1 2.15-3.23c-1.04 6.64-2.5 9.98-3.1 10.26zm22.64-2.8a2.76 2.76 0 0 1-2.04.92h-.1a2.4 2.4 0 0 1-1.9-.83 3.86 3.86 0 0 1-.6-3.13 5.93 5.93 0 0 1 4.96-5 7.03 7.03 0 0 1 1 3.34 6.34 6.34 0 0 1-1.32 4.7zm-30.7-14.2c-.7-.25-1.44-1.92-.9-8.43.3-3.7.4-5.85-.5-6.8a1.63 1.63 0 0 0-1.23-.52c-2.13 0-4.2 2.6-5.63 5.73a62.8 62.8 0 0 1 .46-6.9 10.83 10.83 0 0 0 5.12-5.18c1.8-3.57 1.58-7.38.4-9.3a2.05 2.05 0 0 0-1.65-1.14c-2.72 0-5.23 5.7-6.44 14.53a8.74 8.74 0 0 1-3.6.08 5.5 5.5 0 0 1-.9-.23 6.8 6.8 0 0 0 2.9-5.48 5.95 5.95 0 0 0-1.4-4.5 7.23 7.23 0 0 0-5.27-2.1h-.37c-4.45 0-9.15 2.4-9.53 7-.38 4.02 3.2 6.37 6.66 8.65l.7.45c3.3 2.22 6.23 4.53 5.76 8.35-.38 3.14-4.34 5.66-8.54 5.33a7.32 7.32 0 0 1-5.2-2.56 6.72 6.72 0 0 1-1.44-5.15c.27-1.98 1.13-3.5 3.1-5.4a1.25 1.25 0 0 0 .5-1.27.77.77 0 0 0-.98-.4 8.42 8.42 0 0 0-3.02 1.24 7.6 7.6 0 0 0-2.3 5.18c-.23 4.22 1.94 9.56 8.82 10.75a12.46 12.46 0 0 0 2.1.18c5.6 0 10.06-3.78 10.36-8.8.27-4.7-3.35-7.33-6.77-9.44l-.37-.23c-3.32-2-6.46-3.9-5.97-7.64.4-2.85 3.12-4.12 5.65-4.12.18 0 .36 0 .54.02 2.8.18 4.36 1.8 4.4 4.52a4.36 4.36 0 0 1-1.05 3.07 1.48 1.48 0 0 1-.98.5.98.98 0 0 1-.84-.65 3.94 3.94 0 0 1-.06-2.18l.08-.25a1.08 1.08 0 0 0 .04-1.03.64.64 0 0 0-.55-.26 1.82 1.82 0 0 0-.4.05 3.03 3.03 0 0 0-2.28 2.58c-.08 2.37 1.34 5.12 5.6 5.7a14.44 14.44 0 0 0 4.38-.05c-.27 2.5-.44 5.15-.52 7.9l-.08 3.3c-.03 1.07-.05 1.6-.05 3.06 0 1.24.2 1.68 1.23 1.68.57 0 1.54-.48 1.6-2.2 1.03-6.83 3.84-10.6 4.57-10.64a6.66 6.66 0 0 1-.06 2.08c-.1.95-.22 2.13-.25 3.55-.13 5.84 1 8.8 3.44 9.07 1.2.15 1.44-.4 1.5-.62a.98.98 0 0 0-.8-1.07zm-7.5-19.3c.98-6.28 2.45-9.85 3-10.1a.78.78 0 0 1 .3.42 8.87 8.87 0 0 1-.83 6.67 8.17 8.17 0 0 1-2.45 3zm-25.73 4.34l-.14-.2a.97.97 0 0 0-.83-.28c-.87 0-2.3.4-2.42 1.5-.1.77-.24 2.07-.34 3.46-.65 5.23-2.2 8.13-3.02 8.13a.92.92 0 0 1-.73-.35c-1.06-1.2-1.18-5.22-.33-11.9v-.27l-.14-.18a.97.97 0 0 0-.77-.25c-.88 0-2.33.42-2.46 1.55a39.06 39.06 0 0 0-.2 6.83c-.58 1.9-1.9 4.98-4.3 4.98a2.37 2.37 0 0 1-1.7-.77 7.23 7.23 0 0 1-1.5-5.14c.17-3.7 1.3-6.62 2.56-6.62a.72.72 0 0 1 .66.3c.4.56.23 1.95-.15 3.02l-.1.22a1.1 1.1 0 0 0-.08 1.07.75.75 0 0 0 .9.2c.74-.13 2.26-.93 2.4-1.93a5.2 5.2 0 0 0-1.03-3.7 2.9 2.9 0 0 0-2.23-.9c-3.25 0-5.9 3.8-6.14 8.83v.94c-.9 3.47-1.62 4.68-1.9 4.94-.24-.4-.56-2.32.43-7.5l.02-.27-.15-.16a1.1 1.1 0 0 0-.86-.28 2.17 2.17 0 0 0-2.3 1.42 7.62 7.62 0 0 0-.1.87v.32c-.57 3.1-1.68 4.72-2.5 4.72a.7.7 0 0 1-.43-.3c-.66-.75-1.24-2.72-.92-5.26.4-3.4 1.8-5.7 3.45-5.7a1.2 1.2 0 0 1 1 .32 2.3 2.3 0 0 1-.07 1.84l-.05.14a1.3 1.3 0 0 0-.1 1.23.82.82 0 0 0 .9.23c.74-.14 2.26-1.03 2.4-2.03a3.17 3.17 0 0 0-.83-2.4 3.75 3.75 0 0 0-2.86-1.06c-2.82 0-6.35 2.14-7 8.2-1.07 3.52-2.4 5.16-3 5.16-.75 0-1.95-2.25-2.24-7.25a51.6 51.6 0 0 0 5.36-12.88c.83-3.54 1.38-9.3.03-11a1.36 1.36 0 0 0-1.1-.56c-3.94 0-7.12 12.15-7.66 20.86a27.23 27.23 0 0 0 .05 4.04c-.9 4.2-2.55 6.85-3.32 6.85-.7 0-1.84-2.12-2.12-6.87a49.2 49.2 0 0 0 5.12-12.27c.8-3.38 1.3-8.88.02-10.5a1.32 1.32 0 0 0-1.06-.55c-3.77 0-6.8 11.6-7.32 19.9-.35 6.02 1.3 10.03 2.82 11.64a2.95 2.95 0 0 0 2.1 1.07c1.83 0 3.5-2.5 4.56-5.1.96 3.13 2.6 5.14 4.28 5.14 1.28 0 2.66-1.24 3.88-3.44.73 2.05 2.16 3.12 3.4 3.12h.16c1.18-.1 2.3-1.02 3.26-2.6.38 2.13 1.2 3.4 2.3 3.4 1.32 0 2.43-1.84 3.23-3.77a5.53 5.53 0 0 0 4.9 3.4c2.06 0 4.04-1.48 5.54-4.1.9 3.05 2.58 3.54 3.57 3.54s1.94-.72 2.8-2.06l-.02.28a29.3 29.3 0 0 0-5.63 9.63c-1.05 2.93-1.02 6.06.07 7.6a1.93 1.93 0 0 0 1.6.9c1.84 0 4.63-2.52 7.56-24.43.46-3.18.8-6.65.8-6.65zm-47.98 1.98c.36-6.16 2.42-14.45 3.45-15.84.3.88.34 4.07-.64 7.84a55.1 55.1 0 0 1-2.8 8zm8.74-.5c.36-6.56 2.58-15.45 3.66-16.8.32.85.4 4.24-.65 8.3a58.08 58.08 0 0 1-3 8.5zm34.27 15.6c-1.12 7.7-2.34 10.9-2.9 11.14a.52.52 0 0 1-.32-.25c-.45-.67-.6-2.33.38-4.97a35.7 35.7 0 0 1 2.85-5.9zm-13.05 2.2a1.14 1.14 0 0 0-.67-.3.76.76 0 0 0-.65.55 4.95 4.95 0 0 1-.24.48c-.6 1.08-2.53 1.63-5.75 1.63a88.1 88.1 0 0 1-13.18-1.5c-5.3-.9-11.34-1.85-16.3-2.2a105.26 105.26 0 0 0 2.02-15.7c0-.58-.9-.72-1.23-.72-.4 0-1.7.17-1.8 2.3l-.12 2.55c-.47 2.5-1.87 6.76-6.02 6.96h-.27a5.25 5.25 0 0 1-4.08-1.85c-1.97-2.22-2.8-6.36-2.22-11.08a25.25 25.25 0 0 1 1.08-4.8c6.62-.15 12.93-3.16 14.47-6.93a4.17 4.17 0 0 0-.18-3.95c-.9-1.35-2.72-1.94-4.95-1.64-4.63.6-9.22 4.48-11.8 9.94-2.9-.83-5.4-3.3-4.77-6.65.92-4.9 7.43-6.5 9.57-6.5a1.9 1.9 0 0 1 .63.06 2.67 2.67 0 0 0 .93.18 1.05 1.05 0 0 0 1.16-.66C15.34.8 14.36.34 14 .16A2.92 2.92 0 0 0 12.84 0C9.94 0 1.5 2 .2 8.6a6.68 6.68 0 0 0 .9 5.2 9.34 9.34 0 0 0 5.67 3.56 23.98 23.98 0 0 0-1.22 5.5C5 27.83 6.1 32.22 8.5 34.92a8.38 8.38 0 0 0 6.4 2.82h.3a8.44 8.44 0 0 0 5.83-2.63 47.56 47.56 0 0 1-.82 4.8h-1.05c-5.93 0-9.24 1.22-10.43 3.85A4.4 4.4 0 0 0 9 48.1a6.28 6.28 0 0 0 5.22 2.78 5.97 5.97 0 0 0 .97-.08c3.2-.58 5.46-3.35 7.04-8.7a111.34 111.34 0 0 1 16.32 2.3l2.94.63c5.34 1.13 10.4 2.2 14.06 2.2 2.1 0 3.57-.36 4.46-1.1a2.6 2.6 0 0 0 1.03-2.2 3.43 3.43 0 0 0-1.47-2.56zm-44.1 6.84a3.36 3.36 0 0 1-1.08.2 2.6 2.6 0 0 1-2.33-1.3 2.95 2.95 0 0 1 .23-3.02c.54-.88 2.27-1.9 7.35-2-1.04 3.45-2.44 5.5-4.16 6.12zm3.34-40.6a4.8 4.8 0 0 1 .84-.1 1.73 1.73 0 0 1 1.5.63 2.4 2.4 0 0 1-.12 2.2c-1.3 2.75-6.05 4.73-10 5.05 1.95-4.17 5.02-7.26 7.78-7.8z" class="cls-1"/>
</svg>
