<?xml version="1.0" encoding="UTF-8"?><!DOCTYPE svg PUBLIC "-//W3C//DTD SVG 1.1//EN" "http://www.w3.org/Graphics/SVG/1.1/DTD/svg11.dtd"><svg xmlns="http://www.w3.org/2000/svg"><defs><style>.cls-1{fill:#fff;fill-rule:evenodd}</style><style>.cls-1{fill:#353535;fill-rule:evenodd}</style><style>.cls-1{fill:#fff;fill-rule:evenodd}</style><style>.cls-1{fill:#fff;fill-rule:evenodd;opacity:.2}</style><style>.cls-1{fill:#323232;fill-rule:evenodd}</style><style>.cls-1{fill:#f7f8f8;fill-rule:evenodd}</style><style>.cls-1{fill:#323232;fill-rule:evenodd}</style><style>.cls-1{fill:#323232;fill-rule:evenodd}</style><style>.cls-1{fill:#fff;fill-opacity:.99;fill-rule:evenodd}</style><style>.cls-1{fill:#fff;fill-rule:evenodd}</style><style>.cls-1{fill:#e84d37;fill-rule:evenodd}</style><style>.cls-1{fill:#fff;fill-rule:evenodd;opacity:.8}</style><style>.cls-1{fill:#fff;fill-rule:evenodd;opacity:.8}</style><style>.cls-1{fill:#fff;fill-rule:evenodd;opacity:.8}</style><style>.cls-1{fill:#fff;fill-rule:evenodd;opacity:.8}</style><style>.cls-1{fill:#323232;fill-rule:evenodd}</style></defs><symbol id="cart" viewBox="0 0 20.63 19.719"><path id="&#x41A;&#x43E;&#x440;&#x437;&#x438;&#x43D;&#x430;" class="cls-1" d="M1092.58 33.46l-1.21 8.912a2.025 2.025 0 0 1-1.88 1.635h-10.88a2.025 2.025 0 0 1-1.88-1.635l-1.47-10.287a3.738 3.738 0 0 1-.13-1.055H1073a1 1 0 0 1 0-2h4a.992.992 0 0 1 .1 1.98h13.97c1.1 0 1.77 1.131 1.51 2.45zm-13.85 8.518l-1.31-9h13.2l-.03.2-1.18 8.788a.033.033 0 0 0-.01.014h-10.67zm.52 3.009a1.874 1.874 0 1 1-1.88 1.874 1.874 1.874 0 0 1 1.88-1.874zm9 0a1.874 1.874 0 1 1-1.88 1.874 1.874 1.874 0 0 1 1.88-1.874z" transform="translate(-1072 -29.031)"/></symbol><symbol id="close" viewBox="0 0 10.125 10.125"><path id="_&#x425;" data-name="&#x425;" class="cls-1" d="M649.86 90.139l.708-.707L660 98.86l-.707.707zm9.438-.716l.707.707-9.429 9.429-.707-.707z" transform="translate(-649.875 -89.438)"/></symbol><symbol id="control-next" viewBox="0 0 8.29 13.69"><path id="_" data-name="&gt;" class="cls-1" d="M1164.36 1493.68l1.42-1.41 6.86 6.86-1.42 1.41zm1.41 12.3l-1.41-1.41 6.85-6.86 1.42 1.42z" transform="translate(-1164.34 -1492.28)"/></symbol><symbol id="control-prev" viewBox="0 0 8.281 13.72"><path id="_" data-name="&lt;" class="cls-1" d="M991.611 1493.69l-5.447 5.45 5.44 5.44-1.414 1.41-6.857-6.86 1.414-1.41 5.447-5.44z" transform="translate(-983.344 -1492.28)"/></symbol><symbol id="cow" viewBox="0 0 47.406 47.38"><path id="&#x41A;&#x43E;&#x440;&#x43E;&#x432;&#x430;" class="cls-1" d="M652.578 1395a2.42 2.42 0 0 1-2.127 1.04 9.366 9.366 0 0 1-3.256-.84 17.086 17.086 0 0 1-1.576 8.35 5.2 5.2 0 0 1 .517 3.08c-.488 3.38-4.283 5.23-8.524 5.23s-8.018-1.85-8.48-5.23a5.164 5.164 0 0 1 .33-2.62 17.331 17.331 0 0 1-1.786-8.73 8.929 8.929 0 0 1-3.065.76 2.42 2.42 0 0 1-2.127-1.04 2.326 2.326 0 0 1-.162-2.22c.812-1.91 3.593-2.74 4.75-3.01l.1-.02c-1.4-2.9-.723-7.6-.2-9.19l3.057.25c.056 1 .766 2.88 3.436 5.01l1.585 1.09a12.914 12.914 0 0 1 2.4-.23 12.732 12.732 0 0 1 2.289.21l1.692-1.16c2.67-2.13 3.379-4.01 3.435-5.01l3.058-.26c.528 1.6 1.207 6.35-.224 9.24l.294.07c1.157.27 3.937 1.1 4.75 3.01a2.326 2.326 0 0 1-.166 2.22zm-25.069-3.28s-2.859.66-3.362 1.85 3.155-.14 3.835-.7a2.317 2.317 0 0 1-.473-1.15zm3.3.07c-1.752 2.75-1.578 7 .467 11.37l.367.78-.318.8a3.209 3.209 0 0 0-.208 1.62c.329 2.41 3.6 3.5 6.5 3.5s6.2-1.1 6.545-3.52a3.177 3.177 0 0 0-.33-1.9l-.416-.84.378-.86c1.878-4.25 1.97-8.37.244-11.02-1.3-1.99-3.575-3.04-6.587-3.04-3.051 0-5.351 1.07-6.645 3.11zm20.093 1.78c-.5-1.19-3.361-1.85-3.361-1.85a2.328 2.328 0 0 1-.474 1.15c.678.56 4.333 1.88 3.833.7zm-18.57-6.1s-3.595-2.48-3.735-5.02c-.4 2.18-.584 5.62.7 6.99a21 21 0 0 1 3.032-1.97zm10.232-.1s3.595-2.47 3.736-5.01c.4 2.17.584 5.61-.705 6.98a22.893 22.893 0 0 0-3.034-1.97zm-5.378-15.57a23.7 23.7 0 1 1-23.7 23.7 23.7 23.7 0 0 1 23.697-23.7zm0 45.4a21.7 21.7 0 1 1 21.7-21.7 21.722 21.722 0 0 1-21.703 21.7z" transform="translate(-613.469 -1371.81)"/></symbol><symbol id="heart" viewBox="0 0 14.562 12.66"><path id="&#x421;&#x435;&#x440;&#x434;&#x446;&#x435;" class="cls-1" d="M434.606 2362.73s7.285-3.6 7.285-8.22c0-5.13-5.5-5.94-7.3-1.71m.049 9.93s-7.285-3.6-7.285-8.22c0-5.13 5.5-5.94 7.3-1.71" transform="translate(-427.344 -2350.06)"/></symbol><symbol id="icecream" viewBox="0 0 47.375 47.38"><path id="&#x41C;&#x43E;&#x440;&#x43E;&#x436;&#x435;&#x43D;&#x43A;&#x43E;" class="cls-1" d="M77.454 1381.45a8.575 8.575 0 0 0-14.639 6.06v14.68a.808.808 0 0 0 .809.81h15.533a.808.808 0 0 0 .809-.81v-14.68a8.512 8.512 0 0 0-2.512-6.06zm.894 19.93H64.433v-10.89c.045.05.092.1.143.16a2.619 2.619 0 0 0 4.309 0 1.185 1.185 0 0 1 .946-.6 1 1 0 0 1 .309.43 10.746 10.746 0 0 1 .488 1.22 9.606 9.606 0 0 0 .7 1.65 1.753 1.753 0 0 0 3.237 0 9.614 9.614 0 0 0 .7-1.65 10.67 10.67 0 0 1 .488-1.22 1 1 0 0 1 .309-.43 1.186 1.186 0 0 1 .946.6 3.205 3.205 0 0 0 1.346 1v9.73zm-9.007 8.58a2.049 2.049 0 1 0 4.1 0v-6.16h-4.1v6.16zm2.159-38.16a23.7 23.7 0 1 1-23.7 23.7 23.7 23.7 0 0 1 23.7-23.7zm0 45.4a21.7 21.7 0 1 1 21.7-21.7 21.722 21.722 0 0 1-21.7 21.7z" transform="translate(-47.813 -1371.81)"/></symbol><symbol id="leaf" viewBox="0 0 47.375 47.38"><path id="&#x41B;&#x438;&#x441;&#x442;&#x438;&#x43A;" class="cls-1" d="M71.437 1499.62s-22.24-10.18 0-32.75c22.24 22.57 0 32.75 0 32.75zm7.516-17.18l-6.536 4.16-.021 3.68 6.894-4.41a13.37 13.37 0 0 0-.337-3.43zm-15.39 3.19l6.833 4.48v-3.62l-6.453-4.15a13.622 13.622 0 0 0-.38 3.29zm6.833-1.52v-3.63L66 1477.1a21.756 21.756 0 0 0-1.464 3.24zm0-6.09v-7.04a39.184 39.184 0 0 0-3.356 4.42zm2 .28l3.629-2.6a39.493 39.493 0 0 0-3.629-4.82v7.42zm.021 2.3l-.021 3.68 5.981-3.85a21.714 21.714 0 0 0-1.337-3.01zm6.443 7.9l-6.443 4.1-.021 4.16a15.3 15.3 0 0 0 6.463-8.26zm-8.463 8.2v-4.21l-6.417-4.13c1.105 4.14 4.32 6.93 6.42 8.34zm1.1-36.9a23.7 23.7 0 1 1-23.7 23.7 23.7 23.7 0 0 1 23.703-23.7zm0 45.4a21.7 21.7 0 1 1 21.7-21.7 21.722 21.722 0 0 1-21.697 21.7z" transform="translate(-47.813 -1459.81)"/></symbol><symbol id="login" viewBox="0 0 20.063 19"><path id="&#x412;&#x445;&#x43E;&#x434;" class="cls-1" d="M973 32.968v-.96a3 3 0 0 1 3-3h11.059a3 3 0 0 1 3 3v12.978a3 3 0 0 1-3 3H976a3 3 0 0 1-3-3V44h2v2h13V31h-13v1.968h-2zm-3 8.046h6.029v2.743l7.027-5.3-7.027-5.3V35.9H970v5.114z" transform="translate(-970 -29)"/></symbol><symbol id="loupe" viewBox="0 0 16.687 16.688"><path id="&#x41B;&#x443;&#x43F;&#x430;" class="cls-1" d="M931.155 40.747h-.755l-.264-.261a6.212 6.212 0 1 0-.675.675l.263.262v.755l4.773 4.76 1.423-1.422zm-5.731 0a4.291 4.291 0 1 1 4.3-4.291 4.294 4.294 0 0 1-4.3 4.291z" transform="translate(-919.219 -30.25)"/></symbol><symbol id="map-pin" viewBox="0 0 78.937 138.75"><path id="&#x41F;&#x438;&#x43D;" class="cls-1" d="M322.746 2096.93l-1.051 1.06-2.845-2.85a19.4 19.4 0 0 1-1.675-1.15 18.841 18.841 0 0 1-5.024 5.12 18.462 18.462 0 0 1-4.537 2.27l-1.945 1.95-1.179-1.18a19.422 19.422 0 0 1-2.861.22q-.543 0-1.081-.03l3.056 3.05-3.277 3.28-3.278-3.28 3.084-3.08a18.688 18.688 0 0 1-3.5-.63l-1.649 1.65-3.277-3.28.348-.35a18.708 18.708 0 0 1-2.409-1.72v.01l-.041-.05a18.622 18.622 0 0 1-1.932-1.89 15.909 15.909 0 0 1-5.61 1.7l21.4 60.96c.608 1.73 1.41 2.6 2.212 2.6s1.6-.87 2.212-2.6l21.367-60.88c-.237.01-.475.02-.714.02a18.411 18.411 0 0 1-5.794-.92zm-6.393-.16l3.277 3.28-3.277 3.28-3.277-3.28zm-5.342 5.34l3.277 3.28-3.277 3.28-3.278-3.28zm-8.62 19.31l3.278-3.28 3.277 3.28-3.277 3.28zm6.555 10.68l-3.277 3.28-3.278-3.28 3.278-3.27zm-1.213-16.02l3.278-3.28 3.277 3.28-3.277 3.27zm-2.064-8.62l3.277 3.27-3.277 3.28-3.278-3.28zm-2.065 8.62l-3.278 3.27-3.277-3.27 3.278-3.28zm-14.288-13.64l.326-.33 3.278 3.28-1.9 1.9zm2.776 7.91l2.892-2.89 3.277 3.27-3.277 3.28-2.475-2.47zm2.776 7.91l.116-.12 3.277 3.28-1.69 1.69zm3.419 9.74l-.643-1.83 2.682-2.69 3.278 3.28-3.277 3.28zm2.234 6.36l3.083 3.09-1.481 1.48zm5.148 14.67l-2.474-7.05 2.474-2.47 2.473 2.47zm3.546-10.1l-1.482-1.48 3.084-3.09zm3.835-10.93l-2.039 2.04-3.278-3.28 3.278-3.28 2.682 2.69zm1.716-4.89l-1.69-1.69 3.277-3.28.116.12zm4.063-11.57l-2.476 2.47-3.277-3.28 3.277-3.27 2.892 2.89zm1.489-4.25l-1.9-1.9 3.277-3.28.326.33zm19.416-40.28a35.242 35.242 0 1 0-67.118 2.97 14.063 14.063 0 1 0 15.514 23.46 16.66 16.66 0 0 0 13.484 6.92 16.608 16.608 0 0 0 14.727-8.94l.668-.21a16.6 16.6 0 1 0 22.725-24.2zm-11.215 22.54a10.237 10.237 0 0 1-8.133-3.97 3.141 3.141 0 0 0-3.675-.97 27.731 27.731 0 0 1-3.442 1.16 3.163 3.163 0 0 0-2.094 1.86 10.311 10.311 0 0 1-19.255-.35 3.14 3.14 0 0 0-2.487-2.03 2.48 2.48 0 0 0-.468-.04 3.153 3.153 0 0 0-2.508 1.25 7.77 7.77 0 1 1-8.769-12.01 3.152 3.152 0 0 0 1.807-4.31 28.951 28.951 0 1 1 53.635-3.01 3.144 3.144 0 0 0 1.2 3.6 10.307 10.307 0 0 1-5.811 18.82z" transform="translate(-266.188 -2022.56)"/></symbol><symbol id="social-fb" viewBox="0 0 31.375 31.41"><path id="&#x424;&#x411;" class="cls-1" d="M144.865 2352.23a15.69 15.69 0 1 1-15.692 15.69 15.687 15.687 0 0 1 15.692-15.69zm.773 24.99v-9.29h2.743l.285-3.09h-3.028v-1.86c0-.89.085-1.26 1.367-1.26h1.764v-3.42h-2.792c-3.294 0-4.082 1.54-4.082 4.34v2.2h-1.889v3.09h1.894v9.29h3.738z" transform="translate(-129.188 -2352.22)"/></symbol><symbol id="social-ig" viewBox="0 0 31.376 31.41"><path id="&#x418;&#x43D;&#x441;&#x442;&#x430;" class="cls-1" d="M95.865 2352.23a15.69 15.69 0 1 1-15.692 15.69 15.688 15.688 0 0 1 15.692-15.69zm6.271 23.61a1.745 1.745 0 0 0 1.745-1.75v-12.31a1.743 1.743 0 0 0-1.745-1.74H89.809a1.743 1.743 0 0 0-1.745 1.74v12.31a1.745 1.745 0 0 0 1.745 1.75h12.328zm-1.375-9.1a4.921 4.921 0 1 1-9.529 0h-1.38v6.78a.609.609 0 0 0 .611.61h11.065a.609.609 0 0 0 .612-.61v-6.78h-1.38zM96 2365.13a2.848 2.848 0 1 1 0 5.68 2.84 2.84 0 0 1 0-5.68zm3.7-3.31h1.865a.608.608 0 0 1 .611.61v1.86a.608.608 0 0 1-.611.61H99.7a.609.609 0 0 1-.611-.61v-1.86a.609.609 0 0 1 .611-.61z" transform="translate(-80.188 -2352.22)"/></symbol><symbol id="social-tw" viewBox="0 0 31.375 31.4"><path id="&#x422;&#x432;&#x438;&#x442;&#x435;&#x440;" class="cls-1" d="M46.427 2352.17a15.69 15.69 0 1 1-15.692 15.69 15.688 15.688 0 0 1 15.692-15.69zm9.138 10.81a7.331 7.331 0 0 1-2.092.57 3.663 3.663 0 0 0 1.6-2.02 7.4 7.4 0 0 1-2.313.89 3.645 3.645 0 0 0-6.207 3.32 10.316 10.316 0 0 1-7.507-3.81 3.655 3.655 0 0 0 1.127 4.87 3.68 3.68 0 0 1-1.65-.46v.05a3.651 3.651 0 0 0 2.922 3.57 3.789 3.789 0 0 1-.96.13 3.861 3.861 0 0 1-.685-.07 3.643 3.643 0 0 0 3.4 2.53 7.29 7.29 0 0 1-4.524 1.56 8.291 8.291 0 0 1-.869-.05 10.354 10.354 0 0 0 15.946-8.73c0-.16 0-.31-.011-.47a7.33 7.33 0 0 0 1.823-1.88z" transform="translate(-30.75 -2352.16)"/></symbol><symbol id="social-vk" viewBox="0 0 31.375 31.41"><path id="&#x412;&#x41A;" class="cls-1" d="M193.865 2352.23a15.69 15.69 0 1 1-15.692 15.69 15.687 15.687 0 0 1 15.692-15.69zm5.967 18.25a3.1 3.1 0 0 0-.757-2.2 3.7 3.7 0 0 0-2.016-1.09v-.07a2.881 2.881 0 0 0 1.371-1.14 3.211 3.211 0 0 0 .5-1.77 3.133 3.133 0 0 0-.362-1.52 2.6 2.6 0 0 0-1.091-1.05 4.522 4.522 0 0 0-1.446-.48 17.993 17.993 0 0 0-2.269-.11h-4.8v13.59h5.438a8.909 8.909 0 0 0 2.332-.25 4.783 4.783 0 0 0 1.686-.86 3.684 3.684 0 0 0 1.032-1.27 3.909 3.909 0 0 0 .383-1.78zm-4.372-5.59a1.517 1.517 0 0 0-.169-.67 1 1 0 0 0-.527-.5 2.111 2.111 0 0 0-.8-.17c-.308 0-.766-.01-1.374-.01h-.237v2.88h.43c.583 0 .994-.01 1.228-.02a2.044 2.044 0 0 0 .727-.19 1.129 1.129 0 0 0 .563-.53 1.9 1.9 0 0 0 .157-.79zm.856 5.53a1.673 1.673 0 0 0-.255-.99 1.533 1.533 0 0 0-.767-.54 2.658 2.658 0 0 0-.853-.13c-.362-.01-.849-.01-1.456-.01h-.63v3.4h.184c.888 0 1.5-.01 1.842-.02a2.867 2.867 0 0 0 1.041-.24 1.381 1.381 0 0 0 .68-.59 1.813 1.813 0 0 0 .214-.88z" transform="translate(-178.188 -2352.22)"/></symbol><symbol id="thermometer" viewBox="0 0 47.406 47.38"><path id="&#x413;&#x440;&#x430;&#x434;&#x443;&#x441;&#x43D;&#x438;&#x43A;" class="cls-1" d="M637.023 1498.33a6.814 6.814 0 0 1-6.823-6.77 8.038 8.038 0 0 1 1.822-4.6v-14.84a5 5 0 0 1 10 0v14.91a7.629 7.629 0 0 1 1.778 4.53 6.775 6.775 0 0 1-6.777 6.77zm0-2a4.8 4.8 0 0 1-4.8-4.77 5.237 5.237 0 0 1 1.845-3.78v-15.66a3 3 0 0 1 6 0v15.72a5.092 5.092 0 0 1 1.754 3.72 4.8 4.8 0 0 1-4.799 4.77zm2.706-4.91a2.774 2.774 0 1 1-3.675-2.61v-16.84a.949.949 0 0 1 1.9 0v16.87a2.765 2.765 0 0 1 1.775 2.58zM645 1475h4a1 1 0 0 1 0 2h-4a1 1 0 0 1 0-2zm0-4h4a1 1 0 0 1 0 2h-4a1 1 0 0 1 0-2zm0 8h4a1 1 0 0 1 0 2h-4a1 1 0 0 1 0-2zm0 4h4a1 1 0 0 1 0 2h-4a1 1 0 0 1 0-2zm-7.817-23.2a23.7 23.7 0 1 1-23.7 23.7 23.7 23.7 0 0 1 23.7-23.7zm0 45.4a21.7 21.7 0 1 1 21.7-21.7 21.722 21.722 0 0 1-21.7 21.7z" transform="translate(-613.469 -1459.81)"/></symbol></svg>